<svg width="123" height="26" viewBox="0 0 123 26" fill="none" xmlns="http://www.w3.org/2000/svg">
<path d="M6.73242 20H2.63184L2.65723 16.5723H6.73242C7.57878 16.5723 8.29395 16.3691 8.87793 15.9629C9.47038 15.5566 9.91895 14.9515 10.2236 14.1475C10.5368 13.335 10.6934 12.3363 10.6934 11.1514V10.3516C10.6934 9.46289 10.6045 8.68424 10.4268 8.01562C10.2575 7.33854 10.0036 6.77572 9.66504 6.32715C9.3265 5.87012 8.90332 5.52734 8.39551 5.29883C7.89616 5.07031 7.32064 4.95605 6.66895 4.95605H2.55566V1.51562H6.66895C7.92155 1.51562 9.06836 1.73145 10.1094 2.16309C11.1589 2.58626 12.0645 3.19564 12.8262 3.99121C13.5964 4.77832 14.1888 5.71354 14.6035 6.79688C15.0267 7.87174 15.2383 9.0651 15.2383 10.377V11.1514C15.2383 12.4548 15.0267 13.6481 14.6035 14.7314C14.1888 15.8148 13.6006 16.75 12.8389 17.5371C12.0771 18.3242 11.1758 18.9336 10.1348 19.3652C9.10221 19.7884 7.9681 20 6.73242 20ZM5.18359 1.51562V20H0.727539V1.51562H5.18359ZM24.0107 20.2539C22.8936 20.2539 21.8949 20.0804 21.0146 19.7334C20.1344 19.3779 19.3896 18.8913 18.7803 18.2734C18.1794 17.6556 17.7181 16.9447 17.3965 16.1406C17.0833 15.3366 16.9268 14.486 16.9268 13.5889V13.1064C16.9268 12.0993 17.0664 11.1683 17.3457 10.3135C17.625 9.4502 18.0397 8.69694 18.5898 8.05371C19.14 7.41048 19.8298 6.91113 20.6592 6.55566C21.4886 6.19173 22.4535 6.00977 23.5537 6.00977C24.527 6.00977 25.3988 6.16634 26.1689 6.47949C26.9391 6.79264 27.5908 7.24121 28.124 7.8252C28.6657 8.40918 29.0762 9.11589 29.3555 9.94531C29.6432 10.7747 29.7871 11.7057 29.7871 12.7383V14.4775H18.5645V11.7988H25.6104V11.4688C25.6188 11.0117 25.5384 10.6224 25.3691 10.3008C25.2083 9.97917 24.9714 9.73372 24.6582 9.56445C24.3451 9.39518 23.9642 9.31055 23.5156 9.31055C23.0501 9.31055 22.665 9.41211 22.3604 9.61523C22.0641 9.81836 21.8314 10.0977 21.6621 10.4531C21.5013 10.8001 21.387 11.2021 21.3193 11.6592C21.2516 12.1162 21.2178 12.5986 21.2178 13.1064V13.5889C21.2178 14.0967 21.2855 14.5579 21.4209 14.9727C21.5648 15.3874 21.7679 15.7428 22.0303 16.0391C22.3011 16.3268 22.6227 16.5511 22.9951 16.7119C23.376 16.8727 23.8076 16.9531 24.29 16.9531C24.874 16.9531 25.4495 16.8431 26.0166 16.623C26.5837 16.403 27.0703 16.0391 27.4766 15.5312L29.4189 17.8418C29.1396 18.2396 28.7419 18.6247 28.2256 18.9971C27.7178 19.3695 27.1084 19.6742 26.3975 19.9111C25.6865 20.1396 24.891 20.2539 24.0107 20.2539ZM36.2998 17.0674L39.0039 6.26367H43.5107L39.0166 20H36.3506L36.2998 17.0674ZM34.7002 6.26367L37.3662 17.0674L37.3408 20H34.6621L30.1807 6.26367H34.7002ZM51.2549 20.2539C50.1377 20.2539 49.139 20.0804 48.2588 19.7334C47.3786 19.3779 46.6338 18.8913 46.0244 18.2734C45.4235 17.6556 44.9622 16.9447 44.6406 16.1406C44.3275 15.3366 44.1709 14.486 44.1709 13.5889V13.1064C44.1709 12.0993 44.3105 11.1683 44.5898 10.3135C44.8691 9.4502 45.2839 8.69694 45.834 8.05371C46.3841 7.41048 47.0739 6.91113 47.9033 6.55566C48.7327 6.19173 49.6976 6.00977 50.7979 6.00977C51.7712 6.00977 52.6429 6.16634 53.4131 6.47949C54.1833 6.79264 54.835 7.24121 55.3682 7.8252C55.9098 8.40918 56.3203 9.11589 56.5996 9.94531C56.8874 10.7747 57.0312 11.7057 57.0312 12.7383V14.4775H45.8086V11.7988H52.8545V11.4688C52.863 11.0117 52.7826 10.6224 52.6133 10.3008C52.4525 9.97917 52.2155 9.73372 51.9023 9.56445C51.5892 9.39518 51.2083 9.31055 50.7598 9.31055C50.2943 9.31055 49.9092 9.41211 49.6045 9.61523C49.3083 9.81836 49.0755 10.0977 48.9062 10.4531C48.7454 10.8001 48.6312 11.2021 48.5635 11.6592C48.4958 12.1162 48.4619 12.5986 48.4619 13.1064V13.5889C48.4619 14.0967 48.5296 14.5579 48.665 14.9727C48.8089 15.3874 49.012 15.7428 49.2744 16.0391C49.5452 16.3268 49.8669 16.5511 50.2393 16.7119C50.6201 16.8727 51.0518 16.9531 51.5342 16.9531C52.1182 16.9531 52.6937 16.8431 53.2607 16.623C53.8278 16.403 54.3145 16.0391 54.7207 15.5312L56.6631 17.8418C56.3838 18.2396 55.986 18.6247 55.4697 18.9971C54.9619 19.3695 54.3525 19.6742 53.6416 19.9111C52.9307 20.1396 52.1351 20.2539 51.2549 20.2539ZM63.29 0.5V20H58.999V0.5H63.29ZM65.3975 13.2715V13.0049C65.3975 11.9977 65.5413 11.071 65.8291 10.2246C66.1169 9.36979 66.54 8.62923 67.0986 8.00293C67.6572 7.37663 68.347 6.88997 69.168 6.54297C69.9889 6.1875 70.9368 6.00977 72.0117 6.00977C73.0951 6.00977 74.0472 6.1875 74.8682 6.54297C75.6976 6.88997 76.3916 7.37663 76.9502 8.00293C77.5088 8.62923 77.932 9.36979 78.2197 10.2246C78.5075 11.071 78.6514 11.9977 78.6514 13.0049V13.2715C78.6514 14.2702 78.5075 15.1969 78.2197 16.0518C77.932 16.8981 77.5088 17.6387 76.9502 18.2734C76.3916 18.8997 75.7018 19.3864 74.8809 19.7334C74.0599 20.0804 73.112 20.2539 72.0371 20.2539C70.9622 20.2539 70.0101 20.0804 69.1807 19.7334C68.3512 19.3864 67.6572 18.8997 67.0986 18.2734C66.54 17.6387 66.1169 16.8981 65.8291 16.0518C65.5413 15.1969 65.3975 14.2702 65.3975 13.2715ZM69.6758 13.0049V13.2715C69.6758 13.7878 69.7139 14.2702 69.79 14.7188C69.8662 15.1673 69.9932 15.5609 70.1709 15.8994C70.3486 16.2295 70.5898 16.4876 70.8945 16.6738C71.1992 16.86 71.5801 16.9531 72.0371 16.9531C72.4857 16.9531 72.8581 16.86 73.1543 16.6738C73.459 16.4876 73.7002 16.2295 73.8779 15.8994C74.0557 15.5609 74.1826 15.1673 74.2588 14.7188C74.335 14.2702 74.373 13.7878 74.373 13.2715V13.0049C74.373 12.5055 74.335 12.0358 74.2588 11.5957C74.1826 11.1471 74.0557 10.7536 73.8779 10.415C73.7002 10.068 73.459 9.7972 73.1543 9.60254C72.8496 9.40788 72.4688 9.31055 72.0117 9.31055C71.5632 9.31055 71.1865 9.40788 70.8818 9.60254C70.5856 9.7972 70.3486 10.068 70.1709 10.415C69.9932 10.7536 69.8662 11.1471 69.79 11.5957C69.7139 12.0358 69.6758 12.5055 69.6758 13.0049ZM84.8721 8.9043V25.2812H80.5938V6.26367H84.5801L84.8721 8.9043ZM93.3018 12.9668V13.2334C93.3018 14.2321 93.1875 15.1589 92.959 16.0137C92.7305 16.8685 92.3919 17.6133 91.9434 18.248C91.4948 18.8828 90.9362 19.3779 90.2676 19.7334C89.6074 20.0804 88.8415 20.2539 87.9697 20.2539C87.1488 20.2539 86.4421 20.0719 85.8496 19.708C85.2572 19.3441 84.762 18.8405 84.3643 18.1973C83.9665 17.554 83.6449 16.8177 83.3994 15.9883C83.154 15.1589 82.9593 14.2829 82.8154 13.3604V13.0176C82.9593 12.0273 83.154 11.109 83.3994 10.2627C83.6449 9.40788 83.9665 8.66309 84.3643 8.02832C84.762 7.39355 85.2529 6.89844 85.8369 6.54297C86.4294 6.1875 87.1361 6.00977 87.957 6.00977C88.8288 6.00977 89.5947 6.1748 90.2549 6.50488C90.9235 6.83496 91.4821 7.30892 91.9307 7.92676C92.3877 8.53613 92.7305 9.26823 92.959 10.123C93.1875 10.9779 93.3018 11.9258 93.3018 12.9668ZM89.0234 13.2334V12.9668C89.0234 12.4336 88.9854 11.9469 88.9092 11.5068C88.833 11.0583 88.7103 10.6689 88.541 10.3389C88.3802 10.0088 88.1644 9.75488 87.8936 9.57715C87.6227 9.39941 87.2884 9.31055 86.8906 9.31055C86.4336 9.31055 86.0485 9.38249 85.7354 9.52637C85.4307 9.66178 85.1852 9.87337 84.999 10.1611C84.8213 10.4404 84.6943 10.7917 84.6182 11.2148C84.5505 11.6296 84.5208 12.1162 84.5293 12.6748V13.7158C84.5124 14.359 84.5758 14.9261 84.7197 15.417C84.8636 15.8994 85.1133 16.276 85.4688 16.5469C85.8242 16.8177 86.3066 16.9531 86.916 16.9531C87.3223 16.9531 87.6608 16.86 87.9316 16.6738C88.2025 16.4792 88.4183 16.2126 88.5791 15.874C88.7399 15.527 88.8542 15.1292 88.9219 14.6807C88.9896 14.2321 89.0234 13.7497 89.0234 13.2334Z" fill="black"/>
<path d="M101.858 20.2539C100.741 20.2539 99.7425 20.0804 98.8623 19.7334C97.9821 19.3779 97.2373 18.8913 96.6279 18.2734C96.027 17.6556 95.5658 16.9447 95.2441 16.1406C94.931 15.3366 94.7744 14.486 94.7744 13.5889V13.1064C94.7744 12.0993 94.9141 11.1683 95.1934 10.3135C95.4727 9.4502 95.8874 8.69694 96.4375 8.05371C96.9876 7.41048 97.6774 6.91113 98.5068 6.55566C99.3363 6.19173 100.301 6.00977 101.401 6.00977C102.375 6.00977 103.246 6.16634 104.017 6.47949C104.787 6.79264 105.438 7.24121 105.972 7.8252C106.513 8.40918 106.924 9.11589 107.203 9.94531C107.491 10.7747 107.635 11.7057 107.635 12.7383V14.4775H96.4121V11.7988H103.458V11.4688C103.466 11.0117 103.386 10.6224 103.217 10.3008C103.056 9.97917 102.819 9.73372 102.506 9.56445C102.193 9.39518 101.812 9.31055 101.363 9.31055C100.898 9.31055 100.513 9.41211 100.208 9.61523C99.9118 9.81836 99.679 10.0977 99.5098 10.4531C99.349 10.8001 99.2347 11.2021 99.167 11.6592C99.0993 12.1162 99.0654 12.5986 99.0654 13.1064V13.5889C99.0654 14.0967 99.1331 14.5579 99.2686 14.9727C99.4124 15.3874 99.6156 15.7428 99.8779 16.0391C100.149 16.3268 100.47 16.5511 100.843 16.7119C101.224 16.8727 101.655 16.9531 102.138 16.9531C102.722 16.9531 103.297 16.8431 103.864 16.623C104.431 16.403 104.918 16.0391 105.324 15.5312L107.267 17.8418C106.987 18.2396 106.59 18.6247 106.073 18.9971C105.565 19.3695 104.956 19.6742 104.245 19.9111C103.534 20.1396 102.739 20.2539 101.858 20.2539ZM113.69 9.66602V20H109.412V6.26367H113.411L113.69 9.66602ZM117.753 6.16211L117.677 10.1357C117.507 10.1188 117.279 10.0977 116.991 10.0723C116.703 10.0469 116.462 10.0342 116.268 10.0342C115.768 10.0342 115.337 10.0934 114.973 10.2119C114.617 10.3219 114.321 10.4912 114.084 10.7197C113.855 10.9398 113.686 11.2191 113.576 11.5576C113.475 11.8962 113.428 12.2897 113.437 12.7383L112.662 12.2305C112.662 11.3079 112.751 10.4701 112.929 9.7168C113.115 8.95508 113.377 8.29915 113.716 7.74902C114.054 7.19043 114.465 6.76302 114.947 6.4668C115.43 6.16211 115.971 6.00977 116.572 6.00977C116.784 6.00977 116.991 6.02246 117.194 6.04785C117.406 6.07324 117.592 6.11133 117.753 6.16211ZM117.296 17.9941C117.296 17.3848 117.516 16.877 117.956 16.4707C118.396 16.056 118.963 15.8486 119.657 15.8486C120.36 15.8486 120.927 16.056 121.358 16.4707C121.799 16.877 122.019 17.3848 122.019 17.9941C122.019 18.6035 121.799 19.1156 121.358 19.5303C120.927 19.9365 120.36 20.1396 119.657 20.1396C118.963 20.1396 118.396 19.9365 117.956 19.5303C117.516 19.1156 117.296 18.6035 117.296 17.9941Z" fill="#00A78E" fill-opacity="0.88"/>
</svg>
